<svg width="137" height="125" viewBox="0 0 137 125" fill="none" xmlns="http://www.w3.org/2000/svg">
<path d="M54.1241 48.8426L53.6326 48.7655L53.553 49.2566L44.1959 106.983C41.6491 114.3 37.6404 118.874 33.1116 121.33C28.571 123.792 23.458 124.152 18.6691 122.949C9.06757 120.535 0.90727 111.887 1.3404 101.564L13.4192 23.5765L13.4193 23.5765L13.4203 23.5691C14.7416 14.0955 18.3557 7.88512 23.5676 4.49288C28.7855 1.09682 35.7107 0.455968 43.7978 2.35191L43.8147 2.35588L43.8319 2.35866L118.906 14.5276C126.356 16.5822 131.128 20.4249 133.759 24.9703C136.396 29.5267 136.909 34.8388 135.747 39.8697C133.418 49.9467 124.411 58.7606 112.551 58.0105L54.1241 48.8426Z" fill="#FFD35E" stroke="#FFD35E"/>
</svg>
