<svg width="146" height="122" viewBox="0 0 146 122" fill="none" xmlns="http://www.w3.org/2000/svg">
<path d="M61.8014 70.5925L61.9566 71.0651L62.4301 70.9123L118.082 52.9476C125.756 51.8821 131.654 53.3671 135.903 56.2801C140.164 59.2007 142.813 63.5884 143.923 68.4C146.148 78.047 142.167 89.2506 132.779 93.5676L57.85 118.338L57.85 118.338L57.8428 118.341C48.8073 121.48 41.6324 121.091 36.2384 117.996C30.8384 114.898 27.1134 109.025 25.1175 100.962L25.1134 100.945L25.108 100.929L1.74481 28.5525C0.180203 20.9842 1.42727 14.9853 4.27553 10.5731C7.13065 6.15021 11.6258 3.27334 16.634 2.01669C26.6656 -0.500429 38.6146 3.50294 43.3491 14.4027L61.8014 70.5925Z" fill="#7F00FF" stroke="#7F00FF"/>
</svg>
