<svg width="147" height="120" viewBox="0 0 147 120" fill="none" xmlns="http://www.w3.org/2000/svg">
<path d="M83.3 50.9707L83.1276 50.5041L82.6601 50.6741L27.701 70.6592C20.0714 72.0042 14.1229 70.7356 9.77008 67.9798C5.40584 65.2167 2.59792 60.9286 1.31324 56.1608C-1.26251 46.6015 2.3071 35.2599 11.5311 30.603L85.5051 3.11265L85.5051 3.1127L85.5122 3.10997C94.427 -0.356882 101.611 -0.230722 107.115 2.66493C112.624 5.56384 116.561 11.297 118.85 19.2818L118.855 19.2985L118.861 19.3148L144.852 90.7894C146.692 98.2955 145.665 104.336 142.979 108.849C140.288 113.373 135.901 116.413 130.942 117.851C121.009 120.733 108.921 117.169 103.792 106.449L83.3 50.9707Z" fill="#FF76E0" stroke="#FF76E0"/>
</svg>
